<?xml version="1.0" encoding="UTF-8" standalone="no"?>
<!-- Created with Inkscape (http://www.inkscape.org/) -->

<svg
   width="64mm"
   height="64mm"
   viewBox="0 0 64 64"
   version="1.1"
   id="svg1"
   inkscape:version="1.4 (e7c3feb100, 2024-10-09)"
   sodipodi:docname="Formin-logo.svg"
   xmlns:inkscape="http://www.inkscape.org/namespaces/inkscape"
   xmlns:sodipodi="http://sodipodi.sourceforge.net/DTD/sodipodi-0.dtd"
   xmlns="http://www.w3.org/2000/svg"
   xmlns:svg="http://www.w3.org/2000/svg">
  <sodipodi:namedview
     id="namedview1"
     pagecolor="#505050"
     bordercolor="#eeeeee"
     borderopacity="1"
     inkscape:showpageshadow="0"
     inkscape:pageopacity="0"
     inkscape:pagecheckerboard="0"
     inkscape:deskcolor="#505050"
     inkscape:document-units="mm"
     inkscape:zoom="2.0202157"
     inkscape:cx="206.1661"
     inkscape:cy="153.94395"
     inkscape:window-width="1503"
     inkscape:window-height="933"
     inkscape:window-x="0"
     inkscape:window-y="0"
     inkscape:window-maximized="1"
     inkscape:current-layer="layer1" />
  <defs
     id="defs1" />
  <g
     inkscape:label="Layer 1"
     inkscape:groupmode="layer"
     id="layer1">
    <ellipse
       style="fill:#5f8dd3;stroke-width:0.264583"
       id="path1"
       cx="31.759705"
       cy="31.759705"
       rx="31.49777"
       ry="31.759705" />
    <path
       style="fill:#dbdee3;stroke-width:0.264583"
       id="path5"
       d="m 11.777841,51.724625 c 1.055105,1.449782 2.076046,2.92571 3.240462,4.291008 1.438307,1.548804 2.545508,1.960816 4.735202,3.095865 0.300854,0.155951 0.466571,0.04009 0.747178,-0.05187 0.09862,-0.0929 0.209336,-0.174437 0.295855,-0.278696 0.436975,-0.526579 0.614245,-1.348187 0.78969,-1.995183 0.03366,-0.143931 0.0652,-0.288375 0.100974,-0.431795 0.03288,-0.131794 0.07646,-0.260937 0.104962,-0.393745 0.119463,-0.556572 0.159781,-1.132504 0.201509,-1.698815 8.2e-4,-0.01167 0.05276,-0.732293 0.05117,-0.761625 -0.01109,-0.204303 -0.05082,-0.406042 -0.07623,-0.609065 -0.02293,-0.293127 -0.05451,-0.585703 -0.06879,-0.879377 -0.05879,-1.208969 -0.03484,-1.050584 0.04585,-2.249292 0.03932,-0.333952 0.08024,-0.667721 0.117962,-1.001858 0.03719,-0.329433 0.08347,-0.658122 0.106783,-0.988827 0.05958,-0.845262 0.05212,-1.694228 0.106229,-2.53986 0.07794,-1.218078 0.132397,-1.535036 0.275919,-2.730026 0.06263,-0.375849 0.132154,-0.750618 0.1879,-1.127551 0.05139,-0.347488 0.104813,-0.695219 0.133454,-1.045316 0.03036,-0.37115 0.08906,-2.409166 0.105412,-2.68628 0.08256,-1.398958 0.135085,-1.624232 0.311508,-2.993478 0.02984,-0.775671 0.3228,-1.502883 0.435272,-2.262647 0.05765,-0.389406 0.0612,-0.785048 0.10406,-1.176359 0.116817,-1.066419 0.310844,-2.10824 0.539228,-3.155069 0.05901,-0.240715 0.129513,-0.478904 0.17704,-0.722146 0.03915,-0.200377 0.212338,-1.486071 0.237857,-1.642253 0.131921,-0.807388 0.333673,-1.581264 0.561834,-2.365286 0.05428,-0.236731 0.117585,-0.471571 0.162834,-0.710192 0.06048,-0.318949 0.09605,-0.642231 0.15419,-0.961615 0.119655,-0.657259 0.366536,-1.833356 0.533563,-2.462709 0.17329,-0.652953 0.469222,-1.520418 0.684336,-2.171873 0.264539,-0.656688 0.471395,-1.334167 0.679911,-2.010029 0.04341,-0.140702 0.08403,-0.282252 0.127013,-0.423083 0.03168,-0.103801 0.07797,-0.203954 0.097,-0.310802 0.02376,-0.133351 0.02035,-0.270134 0.03052,-0.405202 0.06222,-0.701033 0.288674,-1.369349 0.442519,-2.051996 0.05953,-0.174804 0.113762,-0.351501 0.178585,-0.524413 0.09218,-0.245889 0.180293,-0.494049 0.29227,-0.731579 0.406553,-0.8624051 0.992716,-1.6177727 1.525354,-2.4019977 0.589894,-0.800345 1.355416,-1.4431288 2.265543,-1.8426306 0.225441,-0.1226494 0.478179,-0.080262 0.717984,-0.1229346 0.283477,-0.050443 0.40001,-0.1195197 0.684651,-0.235467 0.835086,-0.252511 1.706386,-0.4680532 2.583215,-0.4737444 0.926025,0.055008 1.827524,0.3162607 2.705018,0.6034876 0.822258,0.286976 1.662083,0.5559083 2.431174,0.9719743 0.163274,0.088329 0.320003,0.1882585 0.480004,0.282388 -4.605679,-2.6891398 -2.379964,-1.4236269 -1.443844,-0.7054824 0.450516,0.3456133 0.841653,0.7277055 1.227296,1.142411 0.785783,0.8761905 1.308288,1.9158969 1.749991,2.9956168 0.230034,0.63304 0.468032,1.286336 0.383183,1.968222 -0.08118,0.404991 -0.253315,0.781529 -0.414105,1.159311 -0.09184,0.21481 -0.234034,0.400724 -0.34939,0.602842 0,0 3.347535,1.908642 3.347535,1.908642 v 0 c 0.09581,-0.218012 0.213434,-0.425099 0.306123,-0.644606 0.197112,-0.403011 0.354113,-0.843929 0.438343,-1.283849 0.02241,-0.224746 0.05005,-0.362468 0.0131,-0.591543 -0.09168,-0.56842 -0.393494,-1.154076 -0.603359,-1.683198 -0.4732,-1.078967 -0.911625,-2.185115 -1.690691,-3.0903847 C 44.964162,8.9748655 44.850145,8.8221819 44.720494,8.6833103 43.281382,7.1418608 41.171698,6.274096 39.456738,5.1872938 39.275681,5.0873651 39.098066,4.9809264 38.913564,4.8875082 38.125265,4.4883675 37.268541,4.2383625 36.439422,3.9424154 35.504416,3.6574645 34.546373,3.3885409 33.563202,3.3645242 c -0.137078,0.00922 -0.275243,0.00812 -0.411234,0.027663 -0.193153,0.027756 -0.504687,0.1315066 -0.687805,0.1862241 -0.481597,0.1439058 -0.96398,0.2910609 -1.463527,0.3605143 -0.164602,0.016883 -0.328721,0.039446 -0.493808,0.050651 -0.467196,0.031709 -0.751152,-0.025612 -1.125574,0.3072511 -0.739566,0.6534327 -1.39233,1.3984761 -2.02183,2.1567719 -0.131905,0.1814595 -0.281191,0.3514776 -0.395716,0.5443789 -0.108402,0.182594 -0.175022,0.3870759 -0.270028,0.5769861 -0.112781,0.2254446 -0.22973,0.4489233 -0.353157,0.6687204 -0.453674,0.8078898 -0.346349,0.603754 -0.899814,1.3330809 -0.117997,0.1554898 -0.234235,0.3123067 -0.351352,0.4684601 -0.06945,0.118112 -0.157553,0.227079 -0.208337,0.354335 -0.0407,0.101984 -0.05544,0.490177 -0.06457,0.584487 -0.03902,0.403066 -0.102313,0.804263 -0.196223,1.198273 -0.02836,0.127129 -0.07139,0.251854 -0.08508,0.381387 -0.01247,0.118075 0.0083,0.237398 0.0072,0.356124 -0.0015,0.157275 -0.0066,0.314554 -0.01514,0.471605 -0.03048,0.561236 -0.05654,0.746902 -0.130167,1.331431 -0.0373,0.296114 -0.07804,0.591784 -0.117059,0.887676 -0.153767,0.834905 -0.247213,1.445703 -0.483319,2.273193 -0.117853,0.413044 -0.258713,0.81946 -0.405756,1.223037 -0.002,0.0056 -0.729651,1.811125 -0.774565,1.945343 -0.07787,0.232713 -0.124391,0.474769 -0.186587,0.712153 -0.07462,0.600775 -0.108457,0.951531 -0.227388,1.558616 -0.214447,1.094654 -0.619991,2.162862 -0.558823,3.295959 -0.05579,0.909169 -0.0566,1.148416 -0.175675,2.084128 -0.0499,0.392097 -0.112331,0.782532 -0.174759,1.172829 -0.06066,0.379249 -0.159594,0.753198 -0.194484,1.135679 -0.07414,0.81275 0.08018,1.637263 -0.08014,2.447058 -0.158019,1.615548 -0.108361,1.35555 -0.364288,2.969302 -0.08519,0.537181 -0.34949,1.94855 -0.40587,2.535317 -0.01855,0.193053 -0.07893,2.158814 -0.08322,2.291254 -0.110461,1.329714 -0.09484,1.391322 -0.289882,2.72233 -0.216157,1.475086 -0.54821,2.938595 -0.519526,4.439761 -0.03343,0.367493 -0.05003,0.73691 -0.1003,1.102479 -0.106665,0.775653 -0.374103,1.542873 -0.448966,2.31906 -0.01195,0.123941 0.0028,0.249031 0.0021,0.373546 -7.94e-4,0.13257 -0.0045,0.265108 -0.0067,0.397659 -0.04515,0.831887 -0.135537,1.662819 -0.367285,2.466183 -0.138044,0.531421 -0.319875,1.365991 -0.750976,1.745081 -0.06469,0.05689 -0.149746,0.08521 -0.224619,0.127823 -0.07961,0.0044 -0.159607,0.02241 -0.238819,0.01333 -0.09642,-0.01103 -0.187914,-0.04866 -0.281871,-0.07299 0.880565,0.526605 1.761131,1.053213 2.641696,1.579821 0.164499,0.09885 -0.336871,-0.184896 -0.496858,-0.290896 -0.532162,-0.352584 -0.674814,-0.510603 -1.170503,-0.946589 -0.211748,-0.220512 -0.432924,-0.43234 -0.635243,-0.661535 -0.862432,-0.97699 -1.638072,-2.0819 -2.087071,-3.311787 z" />
    <path
       style="fill:#dbdee3;stroke-width:0.264583"
       id="path7"
       d="m 25.743676,30.016582 c 0.09555,-0.172397 0.174608,-0.355018 0.286638,-0.517186 0.833646,-1.206733 2.166625,-2.199431 3.352514,-3.040724 1.150162,-0.764948 2.463239,-1.278674 3.844084,-1.416593 0.316672,-0.03163 0.636061,-0.02352 0.954092,-0.03528 0.925545,0.123477 0.996601,0.07391 1.876502,0.432419 0.308721,0.125788 1.18939,0.602017 0.898499,0.439186 -2.785904,-1.559465 -1.655821,-0.970151 -0.83756,-0.138235 0.254196,0.258439 0.470966,0.551197 0.706451,0.826797 0.199533,0.301273 0.419526,0.58996 0.598604,0.903825 0.865653,1.517213 1.324409,3.295586 1.447485,5.030702 0.03249,0.458042 0.0136,0.918284 0.02043,1.377426 -0.08277,1.764721 -0.501978,3.505886 -1.499807,4.988253 -0.589111,0.875176 -0.866473,1.048322 -1.625894,1.741848 -0.309065,0.19916 -0.602887,0.424249 -0.927197,0.597482 -0.823302,0.439774 -1.76615,0.733742 -2.707278,0.615471 -0.732001,-0.09199 -0.952672,-0.263292 -1.60973,-0.577411 0.624631,0.335651 1.208476,0.761905 1.873893,1.006951 0.287237,0.105781 -0.483651,-0.376028 -0.712539,-0.579268 -0.818322,-0.726614 -1.49702,-1.593651 -2.152687,-2.463982 -0.635378,-0.904613 -1.258096,-1.817222 -1.843408,-2.755125 -0.450138,-0.774041 -0.862936,-1.567246 -1.166376,-2.41059 -0.328806,-0.642815 -0.448992,-1.330565 -0.481835,-2.044147 -0.07032,-0.597442 0.02835,-1.132321 0.157887,-1.70975 0.04039,-0.313206 0.02038,-0.159076 0.06,-0.462399 0,0 -3.353148,-1.750677 -3.353148,-1.750677 v 0 c -0.02029,0.29722 -0.0064,0.147627 -0.0422,0.448733 -0.05447,0.610619 -0.167664,1.227249 -0.102588,1.839405 0.0052,0.03997 0.09443,0.731054 0.09668,0.749538 0.04459,0.365702 0.05883,0.76358 0.177073,1.116118 0.03164,0.09435 0.08472,0.180097 0.127076,0.270145 0.430068,0.867164 0.932092,1.698175 1.372881,2.560008 0.279933,0.459838 0.532332,0.950561 0.837846,1.393822 0.221879,0.321916 0.487081,0.600692 0.734082,0.902645 0.155571,0.190182 0.305431,0.384963 0.458147,0.577445 0.517973,0.661419 1.026436,1.339284 1.605958,1.949294 1.388917,1.461987 2.942272,2.366722 4.813927,3.309152 0.680058,0.270126 0.973579,0.455075 1.720572,0.480282 1.336421,0.0451 2.491462,-0.812848 3.507806,-1.562836 0.267597,-0.285398 0.555038,-0.55341 0.802791,-0.856197 0.43475,-0.531317 1.123251,-1.567166 1.402556,-2.185871 0.564102,-1.249569 0.731036,-2.640552 0.835512,-3.989887 -0.0058,-0.468379 0.0088,-0.937451 -0.01733,-1.405139 -0.09031,-1.617972 -0.38454,-3.559151 -1.123127,-5.020521 -0.166201,-0.328843 -0.391216,-0.624491 -0.586822,-0.936739 -0.390716,-0.487781 -0.952096,-1.265746 -1.485149,-1.624356 -1.114896,-0.750043 -2.279616,-1.42453 -3.446142,-2.091444 -0.886362,-0.506742 -1.898219,-0.738786 -2.908419,-0.783809 -1.434116,0.116766 -3.209071,0.309232 -4.457102,1.08651 -0.204865,0.12759 -0.380043,0.297593 -0.570064,0.446389 -1.1274,1.035399 -2.235302,2.130746 -3.525614,2.967612 -0.191248,0.124039 -0.39762,0.223036 -0.59643,0.334552 z" />
    <path
       style="fill:#dbdee3;stroke-width:0.264583"
       id="path8"
       d="m 41.16153,32.404547 c 0.213731,-0.921702 0.832522,-1.634635 1.505178,-2.263201 0.598149,-0.508376 1.164574,-1.060042 1.79302,-1.532228 0.507614,-0.3814 0.721066,-0.489567 1.262208,-0.812538 0.627502,-0.326015 1.27558,-0.653855 1.97485,-0.796865 0.332081,-0.06791 0.606002,-0.07605 0.945208,-0.100803 0.845884,-0.01537 1.68156,0.164087 2.453611,0.508955 0.222845,0.09954 0.863608,0.45447 0.653412,0.33042 -0.697576,-0.411679 -1.410993,-0.795909 -2.116492,-1.193864 1.016466,0.675309 1.864688,1.540034 2.492553,2.587387 0.337018,0.562189 0.41562,0.803487 0.663948,1.392605 0.494313,1.335609 0.459655,2.739044 0.05108,4.093096 -0.09114,0.302041 -0.213173,0.593881 -0.319757,0.890823 -0.612818,1.346706 -1.373717,2.650281 -2.35485,3.765291 -0.171837,0.195284 -0.360154,0.375423 -0.540232,0.563134 -0.562144,0.528516 -1.187947,1.061397 -1.958752,1.247717 -0.40766,0.09854 -0.684073,0.07575 -1.099447,0.07813 -0.192495,-0.03659 -0.388398,-0.05837 -0.57748,-0.109757 -0.421367,-0.114507 -0.800198,-0.29123 -1.184661,-0.495012 -0.19326,-0.102436 -0.758579,-0.435914 -0.568209,-0.328205 2.481805,1.404178 3.170531,1.883087 1.955358,1.066202 -0.514882,-0.382275 -1.00884,-0.802516 -1.431877,-1.286589 -0.213812,-0.244663 -0.338511,-0.435033 -0.526624,-0.700291 -0.451906,-0.706258 -0.8597,-1.437146 -1.221555,-2.193047 -0.364881,-0.719339 -0.685427,-1.470528 -0.865082,-2.258613 -0.07231,-0.581041 -0.177456,-1.159653 -0.201739,-1.745379 -0.0027,-0.296889 -0.01156,-0.593408 -0.01524,-0.890363 0,0 -3.436488,-1.736439 -3.436488,-1.736439 v 0 c 0.01744,0.325093 0.04919,0.646708 0.111633,0.966697 0.09473,0.610918 0.07982,1.234808 0.262938,1.831232 0.02215,0.08763 0.173538,0.691793 0.198205,0.770189 0.170899,0.543152 0.473503,1.032301 0.670557,1.565219 0.109257,0.257358 0.204764,0.498263 0.336791,0.74535 0.276942,0.518305 0.625525,0.997855 0.89735,1.519555 0.533797,0.833353 1.198652,1.560899 1.999189,2.148419 1.521008,1.045157 0.602461,0.43152 3.896929,2.317724 0.76981,0.440745 1.601692,0.76736 2.493602,0.826264 0.618308,-0.04345 1.163021,-0.09358 1.722189,-0.397195 0.546688,-0.296831 0.943094,-0.789884 1.31948,-1.268804 0.517898,-0.6746 1.063162,-1.343054 1.530286,-2.05445 0.50854,-0.774467 0.88659,-1.620369 1.271244,-2.459995 0.519041,-1.419884 1.04984,-2.833711 0.753488,-4.371388 -0.04889,-0.253653 -0.140554,-0.497154 -0.210833,-0.74573 -0.368029,-0.784899 -0.760356,-1.570362 -1.261075,-2.28198 -0.509524,-0.724133 -1.146342,-1.337776 -1.837825,-1.88567 -1.287928,-0.750236 -3.189047,-2.104682 -4.866423,-2.583972 -0.638913,-0.182563 -1.311746,-0.245958 -1.973154,-0.257114 -0.374324,0.02424 -0.699918,0.02635 -1.064733,0.121896 -0.670896,0.175704 -1.209702,0.666638 -1.782091,1.027439 -1.11325,0.739344 -2.31058,1.371423 -3.279804,2.305421 -0.615291,0.74341 -1.26234,1.460383 -1.906304,2.178417 z" />
    <circle
       id="path9"
       style="fill:#dbdee3;stroke:#000000;stroke-width:0.264583"
       cx="-5.5006504"
       cy="28.812929"
       r="0.017444791" />
  </g>
</svg>
